HIERARCHY
ROOT hip
{
  OFFSET 0 90.174 2.4664
  CHANNELS 6 Xposition Yposition Zposition Zrotation Xrotation Yrotation
  JOINT abdomen
  {
    OFFSET 0 -1.186 -1.5018
    CHANNELS 6 Xposition Yposition Zposition Zrotation Xrotation Yrotation
    JOINT abdomen2
    {
      OFFSET 0 9.964 0.2134
      CHANNELS 6 Xposition Yposition Zposition Zrotation Xrotation Yrotation
      JOINT chest
      {
        OFFSET 0 13.134 -3.2573
        CHANNELS 6 Xposition Yposition Zposition Zrotation Xrotation Yrotation
        JOINT neck
        {
          OFFSET 0 20.686 -1.6905
          CHANNELS 6 Xposition Yposition Zposition Zrotation Xrotation Yrotation
          JOINT head
          {
            OFFSET 0 7.238 -0.1237
            CHANNELS 6 Xposition Yposition Zposition Zrotation Xrotation Yrotation
            End Site
            {
              OFFSET 0 0 0
            }
          }
        }
        JOINT lCollar
        {
          OFFSET 1.7069 20.075 5.0056
          CHANNELS 6 Xposition Yposition Zposition Zrotation Xrotation Yrotation
          JOINT lShldr
          {
            OFFSET 13.6458 -0.047 -4.849
            CHANNELS 6 Xposition Yposition Zposition Zrotation Xrotation Yrotation
            JOINT lForeArm
            {
              OFFSET 28.3255 -0.9759 2.2888
              CHANNELS 6 Xposition Yposition Zposition Zrotation Xrotation Yrotation
              JOINT lHand
              {
                OFFSET 22.1583 -0.53 10.8316
                CHANNELS 6 Xposition Yposition Zposition Zrotation Xrotation Yrotation
                JOINT lThumb1
                {
                  OFFSET 0.786 0.112 2.5817
                  CHANNELS 6 Xposition Yposition Zposition Zrotation Xrotation Yrotation
                  JOINT lThumb2
                  {
                    OFFSET 0.3601 -0.878 4.2331
                    CHANNELS 6 Xposition Yposition Zposition Zrotation Xrotation Yrotation
                    JOINT lThumb2_End
                    {
                      OFFSET 1.8127 -1.216 2.2227
                      CHANNELS 6 Xposition Yposition Zposition Zrotation Xrotation Yrotation
                      End Site
                      {
                        OFFSET 0.0181 -0.0122 0.0222
                      }
                    }
                  }
                }
                JOINT lCarpal1
                {
                  OFFSET 0.9571 1.114 1.7695
                  CHANNELS 6 Xposition Yposition Zposition Zrotation Xrotation Yrotation
                  JOINT lIndex1
                  {
                    OFFSET 4.1246 0.487 4.1451
                    CHANNELS 6 Xposition Yposition Zposition Zrotation Xrotation Yrotation
                    JOINT lIndex2
                    {
                      OFFSET 3.4052 -1.454 2.7682
                      CHANNELS 6 Xposition Yposition Zposition Zrotation Xrotation Yrotation
                      JOINT lIndex2_End
                      {
                        OFFSET 1.4531 -1.795 1.2713
                        CHANNELS 6 Xposition Yposition Zposition Zrotation Xrotation Yrotation
                        End Site
                        {
                          OFFSET 0.0145 -0.0179 0.0127
                        }
                      }
                    }
                  }
                  JOINT lMid1
                  {
                    OFFSET 5.6954 0.21 2.1184
                    CHANNELS 6 Xposition Yposition Zposition Zrotation Xrotation Yrotation
                    JOINT lMid2
                    {
                      OFFSET 3.9766 -1.54 2.3863
                      CHANNELS 6 Xposition Yposition Zposition Zrotation Xrotation Yrotation
                      JOINT lMid2_End
                      {
                        OFFSET 1.4042 -1.926 1.125
                        CHANNELS 6 Xposition Yposition Zposition Zrotation Xrotation Yrotation
                        End Site
                        {
                          OFFSET 0.014 -0.0193 0.0113
                        }
                      }
                    }
                  }
                }
                JOINT lCarpal2
                {
                  OFFSET 2.0956 0.66 -0.3894
                  CHANNELS 6 Xposition Yposition Zposition Zrotation Xrotation Yrotation
                  JOINT lRing1
                  {
                    OFFSET 5.0395 -0.09 2.4971
                    CHANNELS 6 Xposition Yposition Zposition Zrotation Xrotation Yrotation
                    JOINT lRing2
                    {
                      OFFSET 3.7921 -1.552 1.4806
                      CHANNELS 6 Xposition Yposition Zposition Zrotation Xrotation Yrotation
                      JOINT lRing2_End
                      {
                        OFFSET 1.4655 -1.808 0.9609
                        CHANNELS 6 Xposition Yposition Zposition Zrotation Xrotation Yrotation
                        End Site
                        {
                          OFFSET 0.0147 -0.0181 0.0096
                        }
                      }
                    }
                  }
                  JOINT lPinky1
                  {
                    OFFSET 4.9141 -1.269 0.3591
                    CHANNELS 6 Xposition Yposition Zposition Zrotation Xrotation Yrotation
                    JOINT lPinky2
                    {
                      OFFSET 3.1477 -1.685 0.8462
                      CHANNELS 6 Xposition Yposition Zposition Zrotation Xrotation Yrotation
                      JOINT lPinky2_End
                      {
                        OFFSET 0.8055 -1.585 0.7955
                        CHANNELS 6 Xposition Yposition Zposition Zrotation Xrotation Yrotation
                        End Site
                        {
                          OFFSET 0.0081 -0.0158 0.008
                        }
                      }
                    }
                  }
                }
              }
            }
          }
        }
        JOINT rCollar
        {
          OFFSET -1.7069 20.075 5.0056
          CHANNELS 6 Xposition Yposition Zposition Zrotation Xrotation Yrotation
          JOINT rShldr
          {
            OFFSET -13.6458 -0.047 -4.849
            CHANNELS 6 Xposition Yposition Zposition Zrotation Xrotation Yrotation
            JOINT rForeArm
            {
              OFFSET -28.3255 -0.9759 2.2888
              CHANNELS 6 Xposition Yposition Zposition Zrotation Xrotation Yrotation
              JOINT rHand
              {
                OFFSET -22.1583 -0.53 10.8316
                CHANNELS 6 Xposition Yposition Zposition Zrotation Xrotation Yrotation
                JOINT rThumb1
                {
                  OFFSET -0.786 0.112 2.5817
                  CHANNELS 6 Xposition Yposition Zposition Zrotation Xrotation Yrotation
                  JOINT rThumb2
                  {
                    OFFSET -0.3601 -0.878 4.2331
                    CHANNELS 6 Xposition Yposition Zposition Zrotation Xrotation Yrotation
                    JOINT rThumb2_End
                    {
                      OFFSET -1.8127 -1.216 2.2227
                      CHANNELS 6 Xposition Yposition Zposition Zrotation Xrotation Yrotation
                      End Site
                      {
                        OFFSET -0.0181 -0.0122 0.0222
                      }
                    }
                  }
                }
                JOINT rCarpal1
                {
                  OFFSET -0.9571 1.114 1.7695
                  CHANNELS 6 Xposition Yposition Zposition Zrotation Xrotation Yrotation
                  JOINT rIndex1
                  {
                    OFFSET -4.1246 0.487 4.1451
                    CHANNELS 6 Xposition Yposition Zposition Zrotation Xrotation Yrotation
                    JOINT rIndex2
                    {
                      OFFSET -3.4052 -1.454 2.7682
                      CHANNELS 6 Xposition Yposition Zposition Zrotation Xrotation Yrotation
                      JOINT rIndex2_End
                      {
                        OFFSET -1.4531 -1.795 1.2713
                        CHANNELS 6 Xposition Yposition Zposition Zrotation Xrotation Yrotation
                        End Site
                        {
                          OFFSET -0.0145 -0.018 0.0127
                        }
                      }
                    }
                  }
                  JOINT rMid1
                  {
                    OFFSET -5.6954 0.21 2.1184
                    CHANNELS 6 Xposition Yposition Zposition Zrotation Xrotation Yrotation
                    JOINT rMid2
                    {
                      OFFSET -3.9766 -1.54 2.3863
                      CHANNELS 6 Xposition Yposition Zposition Zrotation Xrotation Yrotation
                      JOINT rMid2_End
                      {
                        OFFSET -1.4042 -1.926 1.125
                        CHANNELS 6 Xposition Yposition Zposition Zrotation Xrotation Yrotation
                        End Site
                        {
                          OFFSET -0.014 -0.0193 0.0113
                        }
                      }
                    }
                  }
                }
                JOINT rCarpal2
                {
                  OFFSET -2.0956 0.66 -0.3894
                  CHANNELS 6 Xposition Yposition Zposition Zrotation Xrotation Yrotation
                  JOINT rRing1
                  {
                    OFFSET -5.0395 -0.09 2.4971
                    CHANNELS 6 Xposition Yposition Zposition Zrotation Xrotation Yrotation
                    JOINT rRing2
                    {
                      OFFSET -3.7921 -1.552 1.4806
                      CHANNELS 6 Xposition Yposition Zposition Zrotation Xrotation Yrotation
                      JOINT rRing2_End
                      {
                        OFFSET -1.4655 -1.808 0.9609
                        CHANNELS 6 Xposition Yposition Zposition Zrotation Xrotation Yrotation
                        End Site
                        {
                          OFFSET -0.0147 -0.0181 0.0096
                        }
                      }
                    }
                  }
                  JOINT rPinky1
                  {
                    OFFSET -4.9141 -1.269 0.3592
                    CHANNELS 6 Xposition Yposition Zposition Zrotation Xrotation Yrotation
                    JOINT rPinky2
                    {
                      OFFSET -3.1477 -1.685 0.8462
                      CHANNELS 6 Xposition Yposition Zposition Zrotation Xrotation Yrotation
                      JOINT rPinky2_End
                      {
                        OFFSET -0.8055 -1.585 0.7955
                        CHANNELS 6 Xposition Yposition Zposition Zrotation Xrotation Yrotation
                        End Site
                        {
                          OFFSET -0.0081 -0.0158 0.008
                        }
                      }
                    }
                  }
                }
              }
            }
          }
        }
      }
    }
  }
  JOINT lThigh
  {
    OFFSET 8.367 -8.2066 0.5982
    CHANNELS 6 Xposition Yposition Zposition Zrotation Xrotation Yrotation
    JOINT lShin
    {
      OFFSET 2.1923 -43.463 -0.4932
      CHANNELS 6 Xposition Yposition Zposition Zrotation Xrotation Yrotation
      JOINT lFoot
      {
        OFFSET 0.7333 -45.8593 -2.6451
        CHANNELS 6 Xposition Yposition Zposition Zrotation Xrotation Yrotation
        End Site
        {
          OFFSET 2.6618 -4.2699 12.3931
        }
      }
    }
  }
  JOINT rThigh
  {
    OFFSET -8.367 -8.2066 0.5982
    CHANNELS 6 Xposition Yposition Zposition Zrotation Xrotation Yrotation
    JOINT rShin
    {
      OFFSET -2.1923 -43.463 -0.4931
      CHANNELS 6 Xposition Yposition Zposition Zrotation Xrotation Yrotation
      JOINT rFoot
      {
        OFFSET -0.7333 -45.8593 -2.6451
        CHANNELS 6 Xposition Yposition Zposition Zrotation Xrotation Yrotation
        End Site
        {
          OFFSET -2.6618 -4.2699 12.3931
        }
      }
    }
  }
}
MOTION
Frames:	4
Frame Time:	0.0333333
0 90.174 2.4664 0 0 -0 0 -1.186 -1.5018 0 0 -0 0 9.964 0.2134 0 0 -0 0 13.134 -3.2573 0 0 -0 0 20.686 -1.6905 0 0 -0 0 7.238 -0.1237 0 0 -0 1.7069 20.075 5.0056 0 0 -0 13.6458 -0.047 -4.849 1.66051 0.0835086 5.75766 28.3255 -0.9759 2.2888 -0.0175111 0.895433 15.7816 22.1583 -0.53 10.8316 7.95139e-016 -1.98785e-016 -0 0.786 0.112 2.5817 5.46658e-016 -3.97569e-016 -0 0.3601 -0.878 4.2331 5.96354e-016 0 -0 1.8127 -1.216 2.2227 3.97569e-016 1.98785e-016 9.54166e-015 0.9571 1.114 1.7695 1.49089e-016 -3.97569e-016 -0 4.1246 0.487 4.1451 6.4605e-016 0 3.18055e-015 3.4052 -1.454 2.7682 5.96354e-016 0 3.18055e-015 1.4531 -1.795 1.2713 8.94531e-016 -1.98785e-016 6.36111e-015 5.6954 0.21 2.1184 6.4605e-016 0 3.18055e-015 3.9766 -1.54 2.3863 5.96354e-016 0 3.18055e-015 1.4042 -1.926 1.125 8.94531e-016 -1.98785e-016 6.36111e-015 2.0956 0.66 -0.3894 1.49089e-016 -3.97569e-016 -0 5.0395 -0.09 2.4971 6.4605e-016 0 3.18055e-015 3.7921 -1.552 1.4806 5.96354e-016 0 3.18055e-015 1.4655 -1.808 0.9609 8.94531e-016 -1.98785e-016 6.36111e-015 4.9141 -1.269 0.3591 6.4605e-016 0 3.18055e-015 3.1477 -1.685 0.8462 5.96354e-016 0 3.18055e-015 0.8055 -1.585 0.7955 8.94531e-016 -1.98785e-016 6.36111e-015 -1.7069 20.075 5.0056 0 0 -0 -13.6458 -0.047 -4.849 -1.4496 0.0636048 -5.0245 -28.3255 -0.9759 2.2888 -1.74811 1.20616 -16.8394 -22.1583 -0.53 10.8316 -1.19271e-015 1.98785e-016 -3.18055e-015 -0.786 0.112 2.5817 -3.97569e-016 1.98785e-016 -3.18055e-015 -0.3601 -0.878 4.2331 -2.98177e-016 1.98785e-016 -3.18055e-015 -1.8127 -1.216 2.2227 -2.98177e-016 3.97569e-016 -0 -0.9571 1.114 1.7695 4.96962e-016 0 -6.36111e-015 -4.1246 0.487 4.1451 -9.93923e-017 3.97569e-016 -0 -3.4052 -1.454 2.7682 -8.94531e-016 5.96354e-016 -0 -1.4531 -1.795 1.2713 -3.97569e-016 3.97569e-016 -0 -5.6954 0.21 2.1184 -9.93923e-017 3.97569e-016 -0 -3.9766 -1.54 2.3863 -8.94531e-016 5.96354e-016 -0 -1.4042 -1.926 1.125 -3.97569e-016 3.97569e-016 -0 -2.0956 0.66 -0.3894 4.96962e-016 0 -6.36111e-015 -5.0395 -0.09 2.4971 -9.93923e-017 3.97569e-016 -0 -3.7921 -1.552 1.4806 -8.94531e-016 5.96354e-016 -0 -1.4655 -1.808 0.9609 -3.97569e-016 3.97569e-016 -0 -4.9141 -1.269 0.3592 -9.93923e-017 3.97569e-016 -0 -3.1477 -1.685 0.8462 -8.94531e-016 5.96354e-016 -0 -0.8055 -1.585 0.7955 -3.97569e-016 3.97569e-016 -0 8.367 -8.2066 0.5982 -4.66115 -1.03232 0.120763 2.1923 -43.463 -0.4932 0.00990601 1.55097 0.177175 0.7333 -45.8593 -2.6451 4.65196 -0.54114 -0.255042 -8.367 -8.2066 0.5982 4.66115 -1.03222 -0.120763 -2.1923 -43.463 -0.4931 -0.00990459 1.5509 -0.177176 -0.7333 -45.8593 -2.6451 -4.65196 -0.541171 0.255041 
42.3108 27.0125 35.3799 0 60.9989 -0 0 -1.186 -1.5018 -0.331 17.6727 -0.07692 0 9.964 0.2134 -0.689018 35.3455 -0.0435789 -7.10543e-015 13.134 -3.2573 -0.689018 35.3455 -0.0435794 0 20.686 -1.6905 -16.1186 -30.1485 38.0221 0 7.238 -0.1237 12.071 -14.4191 21.4219 1.7069 20.075 5.0056 -8.64058 -9.56852 -4.88347 13.6458 -0.047 -4.849 -79.3207 -14.6566 -77.3744 28.3255 -0.9759 2.2888 54.1772 64.8355 -90.894 22.1583 -0.53 10.8316 -69.9191 14.3908 -17.3021 0.786 0.112 2.5817 2.996e-006 -1.34113e-006 2.10592e-007 0.3601 -0.878 4.2331 -3.35283e-007 -7.48999e-007 -2.29659e-007 1.8127 -1.216 2.2227 2.82835e-006 -1.71563e-006 9.57619e-008 0.9571 1.114 1.7695 1.59028e-015 2.38542e-015 -6.36111e-015 4.1246 0.487 4.1451 2.996e-006 -1.34113e-006 2.10592e-007 3.4052 -1.454 2.7682 -3.35283e-007 -7.48999e-007 -2.29659e-007 1.4531 -1.795 1.2713 2.82835e-006 -1.71563e-006 9.57619e-008 5.6954 0.21 2.1184 2.996e-006 -1.34113e-006 2.10592e-007 3.9766 -1.54 2.3863 -3.35283e-007 -7.48999e-007 -2.29659e-007 1.4042 -1.926 1.125 2.82835e-006 -1.71563e-006 9.57619e-008 2.0956 0.66 -0.3894 1.59028e-015 2.38542e-015 -6.36111e-015 5.0395 -0.09 2.4971 2.996e-006 -1.34113e-006 2.10592e-007 3.7921 -1.552 1.4806 -3.35283e-007 -7.48999e-007 -2.29659e-007 1.4655 -1.808 0.9609 2.82835e-006 -1.71563e-006 9.57619e-008 4.9141 -1.269 0.3591 2.996e-006 -1.34113e-006 2.10592e-007 3.1477 -1.685 0.8462 -3.35283e-007 -7.48999e-007 -2.29659e-007 0.8055 -1.585 0.7955 2.82835e-006 -1.71563e-006 9.57619e-008 -1.7069 20.075 5.0056 8.66245 -9.54139 5.15087 -13.6458 -0.047 -4.849 79.3319 -14.5438 78.0884 -28.3255 -0.9759 2.2888 -53.0238 63.8235 89.0398 -22.1583 -0.53 10.8316 69.9554 14.1988 17.2973 -0.786 0.112 2.5817 5.56597e-015 0 -3.18055e-015 -0.3601 -0.878 4.2331 -7.95139e-016 0 3.18055e-015 -1.8127 -1.216 2.2227 -7.95139e-016 2.38542e-015 -3.18055e-015 -0.9571 1.114 1.7695 5.56597e-015 -7.95139e-016 -3.18055e-015 -4.1246 0.487 4.1451 -3.18055e-015 0 9.54166e-015 -3.4052 -1.454 2.7682 1.59028e-015 7.95139e-016 -0 -1.4531 -1.795 1.2713 1.59028e-015 -7.95139e-016 -0 -5.6954 0.21 2.1184 -3.18055e-015 0 9.54166e-015 -3.9766 -1.54 2.3863 1.59028e-015 7.95139e-016 -0 -1.4042 -1.926 1.125 1.59028e-015 -7.95139e-016 -0 -2.0956 0.66 -0.3894 5.56597e-015 -7.95139e-016 -3.18055e-015 -5.0395 -0.09 2.4971 -3.18055e-015 0 9.54166e-015 -3.7921 -1.552 1.4806 1.59028e-015 7.95139e-016 -0 -1.4655 -1.808 0.9609 1.59028e-015 -7.95139e-016 -0 -4.9141 -1.269 0.3592 -3.18055e-015 0 9.54166e-015 -3.1477 -1.685 0.8462 1.59028e-015 7.95139e-016 -0 -0.8055 -1.585 0.7955 1.59028e-015 -7.95139e-016 -0 8.367 -8.2066 0.5982 -168.323 -58.3572 -162.891 2.1923 -43.463 -0.4932 175.616 27.4325 -162.738 0.7333 -45.8593 -2.6451 -10.273 1.90749 -13.8759 -8.367 -8.2066 0.5982 168.328 -58.3677 162.901 -2.1923 -43.463 -0.4931 -175.602 27.4373 162.726 -0.7333 -45.8593 -2.6451 10.2751 1.89452 13.8765 
42.3108 26.9616 35.5064 0 61.4985 -0 0 -1.186 -1.5018 -0.330558 17.5062 -0.0781418 7.10543e-015 9.964 0.2134 -0.686765 35.0124 -0.0477247 0 13.134 -3.2573 -0.686764 35.0124 -0.0477245 0 20.686 -1.6905 -15.529 -30.1104 38.3361 7.10543e-015 7.238 -0.1237 12.4443 -14.9369 21.6573 1.7069 20.075 5.0056 -8.6331 -9.55078 -4.88176 13.6458 -0.047 -4.849 -79.3207 -14.6566 -77.3744 28.3255 -0.9759 2.2888 54.2823 64.9086 -90.5855 22.1583 -0.53 10.8316 -69.8294 14.7758 -17.6578 0.786 0.112 2.5817 2.66246e-006 -2.08827e-006 -1.1771e-008 0.3601 -0.878 4.2331 2.9972e-006 -1.33897e-006 2.17301e-007 1.8127 -1.216 2.2227 -1.19271e-014 -7.95139e-015 9.54166e-015 0.9571 1.114 1.7695 -3.18055e-015 -3.97569e-015 9.54166e-015 4.1246 0.487 4.1451 2.66246e-006 -2.08827e-006 -1.1771e-008 3.4052 -1.454 2.7682 2.9972e-006 -1.33897e-006 2.17301e-007 1.4531 -1.795 1.2713 -3.97569e-015 -3.18055e-015 -0 5.6954 0.21 2.1184 2.66246e-006 -2.08827e-006 -1.1771e-008 3.9766 -1.54 2.3863 2.9972e-006 -1.33897e-006 2.17301e-007 1.4042 -1.926 1.125 -3.97569e-015 -3.18055e-015 -0 2.0956 0.66 -0.3894 -3.18055e-015 -3.97569e-015 9.54166e-015 5.0395 -0.09 2.4971 2.66246e-006 -2.08827e-006 -1.1771e-008 3.7921 -1.552 1.4806 2.9972e-006 -1.33897e-006 2.17301e-007 1.4655 -1.808 0.9609 -3.97569e-015 -3.18055e-015 -0 4.9141 -1.269 0.3591 2.66246e-006 -2.08827e-006 -1.1771e-008 3.1477 -1.685 0.8462 2.9972e-006 -1.33897e-006 2.17301e-007 0.8055 -1.585 0.7955 -3.97569e-015 -3.18055e-015 -0 -1.7069 20.075 5.0056 8.5614 -9.20419 5.53298 -13.6458 -0.047 -4.849 79.3237 -14.7136 78.103 -28.3255 -0.9759 2.2888 -53.3743 64.0559 88.3214 -22.1583 -0.53 10.8316 69.6216 14.8143 17.785 -0.786 0.112 2.5817 7.95139e-016 3.18055e-015 -0 -0.3601 -0.878 4.2331 7.95139e-016 -7.95139e-016 -3.18055e-015 -1.8127 -1.216 2.2227 -1.59028e-015 -4.77083e-015 -3.18055e-015 -0.9571 1.114 1.7695 7.95139e-016 2.38542e-015 -0 -4.1246 0.487 4.1451 1.59028e-015 0 6.36111e-015 -3.4052 -1.454 2.7682 6.36111e-015 3.97569e-015 3.18055e-015 -1.4531 -1.795 1.2713 3.18055e-015 -4.77083e-015 -3.18055e-015 -5.6954 0.21 2.1184 1.59028e-015 0 6.36111e-015 -3.9766 -1.54 2.3863 6.36111e-015 3.97569e-015 3.18055e-015 -1.4042 -1.926 1.125 3.18055e-015 -4.77083e-015 -3.18055e-015 -2.0956 0.66 -0.3894 7.95139e-016 2.38542e-015 -0 -5.0395 -0.09 2.4971 1.59028e-015 0 6.36111e-015 -3.7921 -1.552 1.4806 6.36111e-015 3.97569e-015 3.18055e-015 -1.4655 -1.808 0.9609 3.18055e-015 -4.77083e-015 -3.18055e-015 -4.9141 -1.269 0.3592 1.59028e-015 0 6.36111e-015 -3.1477 -1.685 0.8462 6.36111e-015 3.97569e-015 3.18055e-015 -0.8055 -1.585 0.7955 3.18055e-015 -4.77083e-015 -3.18055e-015 8.367 -8.2066 0.5982 -168.523 -58.0764 -163.043 2.1923 -43.463 -0.4932 175.617 27.4301 -162.743 0.7333 -45.8593 -2.6451 -10.2799 1.91717 -13.8776 -8.367 -8.2066 0.5982 168.528 -58.0872 163.053 -2.1923 -43.463 -0.4931 -175.603 27.4356 162.732 -0.7333 -45.8593 -2.6451 10.282 1.90424 13.8781 
42.3107 26.9106 35.6325 0 61.9983 -0 0 -1.186 -1.5018 -0.33012 17.3396 -0.0793631 0 9.964 0.2134 -0.684549 34.6793 -0.0518428 7.10543e-015 13.134 -3.2573 -0.684548 34.6793 -0.0518433 0 20.686 -1.6905 -14.9397 -30.0695 38.6497 0 7.238 -0.1237 12.8208 -15.4534 21.8968 1.7069 20.075 5.0056 -8.62562 -9.53303 -4.88005 13.6458 -0.047 -4.849 -79.3207 -14.6566 -77.3743 28.3255 -0.9759 2.2888 54.3869 64.9819 -90.2766 22.1583 -0.53 10.8316 -69.737 15.1604 -18.0149 0.786 0.112 2.5817 1.59028e-015 2.38542e-015 -3.18055e-015 0.3601 -0.878 4.2331 6.36111e-015 5.56597e-015 -0 1.8127 -1.216 2.2227 2.6642e-006 -2.08639e-006 -4.45199e-009 0.9571 1.114 1.7695 1.59028e-015 1.59028e-015 -3.18055e-015 4.1246 0.487 4.1451 2.38542e-015 5.56597e-015 -0 3.4052 -1.454 2.7682 3.97569e-015 -7.95139e-016 3.18055e-015 1.4531 -1.795 1.2713 2.6642e-006 -2.08639e-006 -4.45198e-009 5.6954 0.21 2.1184 2.38542e-015 5.56597e-015 -0 3.9766 -1.54 2.3863 3.97569e-015 -7.95139e-016 3.18055e-015 1.4042 -1.926 1.125 2.6642e-006 -2.08639e-006 -4.45198e-009 2.0956 0.66 -0.3894 1.59028e-015 1.59028e-015 -3.18055e-015 5.0395 -0.09 2.4971 2.38542e-015 5.56597e-015 -0 3.7921 -1.552 1.4806 3.97569e-015 -7.95139e-016 3.18055e-015 1.4655 -1.808 0.9609 2.6642e-006 -2.08639e-006 -4.45198e-009 4.9141 -1.269 0.3591 2.38542e-015 5.56597e-015 -0 3.1477 -1.685 0.8462 3.97569e-015 -7.95139e-016 3.18055e-015 0.8055 -1.585 0.7955 2.6642e-006 -2.08639e-006 -4.45198e-009 -1.7069 20.075 5.0056 8.45813 -8.86752 5.91546 -13.6458 -0.047 -4.849 79.3156 -14.8834 78.1175 -28.3255 -0.9759 2.2888 -53.7214 64.2907 87.5991 -22.1583 -0.53 10.8316 69.281 15.4275 18.2782 -0.786 0.112 2.5817 -3.18055e-015 3.97569e-015 -9.54166e-015 -0.3601 -0.878 4.2331 1.59028e-015 1.59028e-015 -6.36111e-015 -1.8127 -1.216 2.2227 -9.54166e-015 7.95139e-015 -3.18055e-015 -0.9571 1.114 1.7695 1.32417e-031 7.95139e-016 -9.54166e-015 -4.1246 0.487 4.1451 1.59028e-015 -3.18055e-015 -6.36111e-015 -3.4052 -1.454 2.7682 -3.18055e-015 3.97569e-015 -0 -1.4531 -1.795 1.2713 -3.97569e-015 -1.59028e-015 -3.18055e-015 -5.6954 0.21 2.1184 1.59028e-015 -3.18055e-015 -6.36111e-015 -3.9766 -1.54 2.3863 -3.18055e-015 3.97569e-015 -0 -1.4042 -1.926 1.125 -3.97569e-015 -1.59028e-015 -3.18055e-015 -2.0956 0.66 -0.3894 1.32417e-031 7.95139e-016 -9.54166e-015 -5.0395 -0.09 2.4971 1.59028e-015 -3.18055e-015 -6.36111e-015 -3.7921 -1.552 1.4806 -3.18055e-015 3.97569e-015 -0 -1.4655 -1.808 0.9609 -3.97569e-015 -1.59028e-015 -3.18055e-015 -4.9141 -1.269 0.3592 1.59028e-015 -3.18055e-015 -6.36111e-015 -3.1477 -1.685 0.8462 -3.18055e-015 3.97569e-015 -0 -0.8055 -1.585 0.7955 -3.97569e-015 -1.59028e-015 -3.18055e-015 8.367 -8.2066 0.5982 -168.721 -57.7923 -163.194 2.1923 -43.463 -0.4932 175.619 27.4247 -162.749 0.7333 -45.8593 -2.6451 -10.2868 1.92672 -13.8792 -8.367 -8.2066 0.5982 168.725 -57.8073 163.201 -2.1923 -43.463 -0.4931 -175.604 27.4347 162.737 -0.7333 -45.8593 -2.6451 10.2888 1.91378 13.8797 
